<svg width="1440" height="869" viewBox="0 0 1440 869" fill="none" xmlns="http://www.w3.org/2000/svg">
<path fill-rule="evenodd" clip-rule="evenodd" d="M-1527 689.124L-1366.32 746.804C-1208.67 804.484 -890.344 919.844 -568.984 843.949C-250.656 768.055 67.6719 497.869 386 440.189C704.328 382.509 1022.66 537.335 1344.02 537.335C1662.34 537.335 1980.67 382.509 2138.32 306.615L2299 230.72V0H2138.32C1980.67 0 1662.34 0 1344.02 0C1022.66 0 704.328 0 386 0C67.6719 0 -250.656 0 -568.984 0C-890.344 0 -1208.67 0 -1366.32 0H-1527V689.124Z" fill="#00A982"/>
</svg>
