<svg width="78" height="78" viewBox="0 0 78 78" fill="none" xmlns="http://www.w3.org/2000/svg">
<rect x="0.261719" y="0.341064" width="77.48" height="77.48" rx="38.74" fill="#00A982"/>
<path d="M39.4723 47.23C39.4723 56.2486 39.9833 58.6463 39.9833 58.6463H30.1573C29.7664 58.6463 29.3914 58.8009 29.115 59.0761C28.8386 59.3512 28.6833 59.7245 28.6833 60.1137C28.6833 60.5028 28.8386 60.8761 29.115 61.1513C29.3914 61.4265 29.7664 61.5811 30.1573 61.5811H47.8458C48.2368 61.5811 48.6117 61.4265 48.8881 61.1513C49.1646 60.8761 49.3199 60.5028 49.3199 60.1137C49.3199 59.7245 49.1646 59.3512 48.8881 59.0761C48.6117 58.8009 48.2368 58.6463 47.8458 58.6463H42.9323C42.9323 58.6463 42.726 57.6788 42.5756 54.6638C45.109 54.5659 47.4419 54.3762 49.4574 54.16C54.5753 53.6121 58.5454 49.2745 57.941 44.0105C57.1401 37.0453 54.7827 30.2933 51.5113 25.2416C48.2851 20.2632 43.9199 16.5811 39.0006 16.5811C34.0832 16.5811 29.7171 20.2632 26.4918 25.2416C23.2195 30.2933 20.863 37.0463 20.0631 44.0115C19.4577 49.2745 23.4278 53.6131 28.5457 54.1609C30.8196 54.4055 33.4965 54.6149 36.4092 54.697C36.478 53.3128 36.537 51.4922 36.5566 49.1307C35.3317 47.9563 34.119 46.7693 32.9187 45.5699C31.7081 44.3689 30.5102 43.1555 29.325 41.9298C28.9063 41.4954 28.7403 40.8762 29.1137 40.4037C29.2041 40.2882 29.3141 40.1656 29.4439 40.0358C29.5749 39.9067 29.6981 39.7971 29.8134 39.7071C30.288 39.3354 30.91 39.5017 31.3464 39.9175C32.0264 40.5661 33.2233 41.7224 35.002 43.494C35.589 44.0777 36.1098 44.5994 36.5645 45.0592C36.5625 39.9644 36.5546 36.8359 36.5487 35.3617C36.5468 34.7024 36.762 34.0009 37.3919 33.7984C37.7992 33.6679 38.2375 33.6679 38.6448 33.7984C39.2757 34.0009 39.49 34.7024 39.488 35.3617L39.4782 39.0674C39.904 38.6376 40.3845 38.1566 40.9198 37.6244C42.1258 36.4197 43.3445 35.2274 44.5754 34.0479C45.0127 33.6312 45.6338 33.4658 46.1084 33.8376C46.2244 33.9276 46.3479 34.0371 46.4789 34.1663C46.6086 34.2961 46.7183 34.4187 46.8081 34.5341C47.1815 35.0066 47.0154 35.6258 46.5978 36.0602C45.4126 37.2856 44.2146 38.4987 43.0041 39.6993C41.8385 40.8635 40.6615 42.0163 39.4732 43.1575L39.4723 47.23Z" fill="#EFEFEF"/>
</svg>
