<svg width="79" height="78" viewBox="0 0 79 78" fill="none" xmlns="http://www.w3.org/2000/svg">
<rect x="0.761719" y="0.341064" width="77.476" height="77.476" rx="38.738" fill="#00A982"/>
<path fill-rule="evenodd" clip-rule="evenodd" d="M50.6373 22.0433C51.3983 20.6522 53.3971 20.6522 54.158 22.0433L55.757 24.9668C56.0885 25.573 56.5869 26.0714 57.1931 26.4029L60.1166 28.0019C61.5077 28.7628 61.5077 30.7616 60.1166 31.5226L57.1931 33.1216C56.5869 33.4531 56.0885 33.9515 55.757 34.5576L54.158 37.4811C53.3971 38.8722 51.3983 38.8722 50.6373 37.4811L49.0383 34.5576C48.7068 33.9515 48.2084 33.4531 47.6023 33.1216L44.6788 31.5226C43.2877 30.7616 43.2877 28.7628 44.6788 28.0019L47.6023 26.4029C48.2084 26.0714 48.7068 25.573 49.0383 24.9668L50.6373 22.0433ZM45.8933 24.5927L43.5237 25.8891C40.4613 27.5636 40.4613 31.9608 43.5237 33.6353L46.4472 35.2343C46.6491 35.3448 46.8151 35.5108 46.9256 35.7127L48.5246 38.6362C49.4317 40.2954 51.1382 41.0556 52.779 40.9159C51.9925 44.1296 50.1553 46.9887 47.5589 49.0394C47.4241 49.5195 47.2834 49.998 47.1367 50.4746C46.7594 51.706 45.7119 52.6492 44.3657 52.7896C43.1994 52.9109 41.2713 53.0409 38.3502 53.0409C35.4291 53.0409 33.501 52.9109 32.3347 52.7896C30.9885 52.6492 29.9418 51.706 29.5637 50.4746C29.417 49.998 29.2763 49.5195 29.1415 49.0394C25.7075 46.3214 23.5 42.112 23.5 37.388C23.5 29.1867 30.1489 22.5378 38.3502 22.5378C41.1035 22.5378 43.6826 23.2875 45.8933 24.5927ZM31.4846 54.6784C31.6933 54.7266 31.9068 54.7622 32.1252 54.7852C33.371 54.9152 35.3697 55.0477 38.3494 55.0477C41.3291 55.0477 43.327 54.9152 44.5736 54.7852C44.8592 54.7555 45.1419 54.7026 45.4189 54.6271L45.3932 54.8679C45.2046 56.6057 43.9588 58.1807 42.0515 58.4319C40.8236 58.5871 39.587 58.6633 38.3494 58.6599C36.768 58.6599 35.5407 58.5459 34.6393 58.4094C32.98 58.1582 31.8876 56.8401 31.6106 55.3615C31.5705 55.148 31.5285 54.9198 31.4846 54.6784Z" fill="#EFEFEF"/>
</svg>
