<svg width="79" height="79" viewBox="0 0 79 79" fill="none" xmlns="http://www.w3.org/2000/svg">
<rect x="0.761719" y="0.841064" width="77.476" height="77.476" rx="38.738" fill="#00A982"/>
<path d="M40.2198 21.5793L30.7255 29.269C29.1463 30.5441 28.8423 32.8392 30.0389 34.4772C31.3041 36.223 33.766 36.5663 35.4628 35.2422L45.2024 27.6703C45.889 27.1406 46.8698 27.2583 47.4093 27.9449C47.9487 28.6315 47.8212 29.6123 47.1346 30.1517L45.0847 31.7407L58.7182 44.2952V25.7773H58.6495L58.267 25.5321L51.1462 20.9712C49.6455 20.01 47.8899 19.5 46.1048 19.5C43.9666 19.5 41.8872 20.2356 40.2198 21.5793ZM42.4561 33.7808L37.3853 37.7237C34.2957 40.1365 29.8133 39.5088 27.4986 36.3309C25.3211 33.3394 25.8704 29.1611 28.7442 26.8366L36.9046 20.2356C35.7669 19.755 34.5409 19.5098 33.2952 19.5098C31.4513 19.5 29.6564 20.0493 28.1165 21.0693L21.0545 25.7773V47.7477H23.8205L32.7852 55.9278C34.7076 57.6835 37.6795 57.5461 39.4352 55.6237C39.9746 55.0254 40.3375 54.329 40.5239 53.6032L42.1913 55.1333C44.1039 56.889 47.0856 56.7615 48.8413 54.8489C49.2826 54.3683 49.6063 53.8092 49.8123 53.2305C51.7151 54.5056 54.3045 54.2408 55.9032 52.4949C57.6589 50.5823 57.5314 47.6006 55.6188 45.8449L42.4561 33.7808ZM10.0693 25.7773C9.20619 25.7773 8.5 26.4835 8.5 27.3466V47.7477C8.5 49.4838 9.90258 50.8864 11.6386 50.8864H14.7773C16.5133 50.8864 17.9159 49.4838 17.9159 47.7477V25.7773H10.0693ZM13.208 44.6091C13.6242 44.6091 14.0233 44.7744 14.3176 45.0687C14.6119 45.363 14.7773 45.7622 14.7773 46.1784C14.7773 46.5946 14.6119 46.9938 14.3176 47.2881C14.0233 47.5824 13.6242 47.7477 13.208 47.7477C12.7917 47.7477 12.3926 47.5824 12.0983 47.2881C11.804 46.9938 11.6386 46.5946 11.6386 46.1784C11.6386 45.7622 11.804 45.363 12.0983 45.0687C12.3926 44.7744 12.7917 44.6091 13.208 44.6091ZM61.8568 25.7773V47.7477C61.8568 49.4838 63.2594 50.8864 64.9954 50.8864H68.1341C69.8701 50.8864 71.2727 49.4838 71.2727 47.7477V27.3466C71.2727 26.4835 70.5665 25.7773 69.7034 25.7773H61.8568ZM64.9954 46.1784C64.9954 45.7622 65.1608 45.363 65.4551 45.0687C65.7494 44.7744 66.1485 44.6091 66.5648 44.6091C66.981 44.6091 67.3801 44.7744 67.6744 45.0687C67.9687 45.363 68.1341 45.7622 68.1341 46.1784C68.1341 46.5946 67.9687 46.9938 67.6744 47.2881C67.3801 47.5824 66.981 47.7477 66.5648 47.7477C66.1485 47.7477 65.7494 47.5824 65.4551 47.2881C65.1608 46.9938 64.9954 46.5946 64.9954 46.1784Z" fill="#EFEFEF"/>
</svg>
