<svg width="78" height="79" viewBox="0 0 78 79" fill="none" xmlns="http://www.w3.org/2000/svg">
<rect x="0.261719" y="0.841064" width="77.476" height="77.476" rx="38.738" fill="#00A982"/>
<path d="M38.9995 20.21C38.1525 20.21 37.3138 20.3722 36.5312 20.6875C35.7487 21.0027 35.0377 21.4648 34.4388 22.0473C33.8398 22.6299 33.3647 23.3214 33.0406 24.0825C32.7165 24.8436 32.5496 25.6594 32.5496 26.4832C32.5496 27.307 32.7165 28.1227 33.0406 28.8838C33.3647 29.6449 33.8398 30.3365 34.4388 30.919C35.0377 31.5015 35.7487 31.9636 36.5312 32.2789C37.3138 32.5941 38.1525 32.7564 38.9995 32.7564C40.7101 32.7564 42.3507 32.0955 43.5603 30.919C44.7698 29.7426 45.4494 28.1469 45.4494 26.4832C45.4494 24.8194 44.7698 23.2238 43.5603 22.0473C42.3507 20.8709 40.7101 20.21 38.9995 20.21ZM53.5263 23.3434C52.242 23.3434 51.0104 23.8396 50.1023 24.7228C49.1942 25.6061 48.684 26.804 48.684 28.053C48.684 29.3021 49.1942 30.5 50.1023 31.3833C51.0104 32.2665 52.242 32.7627 53.5263 32.7627C54.8105 32.7627 56.0421 32.2665 56.9502 31.3833C57.8583 30.5 58.3685 29.3021 58.3685 28.053C58.3685 26.804 57.8583 25.6061 56.9502 24.7228C56.0421 23.8396 54.8105 23.3434 53.5263 23.3434ZM24.4728 23.3434C23.1885 23.3434 21.9569 23.8396 21.0488 24.7228C20.1407 25.6061 19.6305 26.804 19.6305 28.053C19.6305 29.3021 20.1407 30.5 21.0488 31.3833C21.9569 32.2665 23.1885 32.7627 24.4728 32.7627C25.757 32.7627 26.9886 32.2665 27.8967 31.3833C28.8048 30.5 29.315 29.3021 29.315 28.053C29.315 26.804 28.8048 25.6061 27.8967 24.7228C26.9886 23.8396 25.757 23.3434 24.4728 23.3434ZM29.315 39.0202C29.321 38.1913 29.6637 37.3983 30.2685 36.8142C30.8732 36.2302 31.6909 35.9024 32.5432 35.9024H45.4558C46.312 35.9024 47.1331 36.2332 47.7385 36.822C48.3439 37.4108 48.684 38.2095 48.684 39.0422V48.4614C48.6849 49.4496 48.5258 50.4318 48.2127 51.372C47.4979 53.5029 46.0254 55.3162 44.0597 56.4863C42.094 57.6563 39.7638 58.1065 37.4875 57.7559C35.2113 57.4053 33.1381 56.277 31.6402 54.5735C30.1423 52.87 29.3179 50.7029 29.315 48.4614V39.0202ZM26.0868 39.0422C26.0868 37.8962 26.4 36.8255 26.952 35.9024H19.6305C18.7743 35.9024 17.9533 36.2332 17.3479 36.822C16.7425 37.4108 16.4023 38.2095 16.4023 39.0422V46.8915C16.4019 48.1766 16.7259 49.4422 17.3458 50.5771C17.9658 51.712 18.8628 52.6814 19.958 53.4003C21.0532 54.1193 22.3131 54.5657 23.6272 54.7003C24.9412 54.835 26.2691 54.6538 27.4943 54.1726C26.5672 52.4029 26.0848 50.4445 26.0868 48.4583V39.0422ZM51.9122 39.0422V48.4614C51.9122 50.5179 51.4053 52.4583 50.5047 54.1726C51.7299 54.6538 53.0578 54.835 54.3718 54.7003C55.6859 54.5657 56.9458 54.1193 58.041 53.4003C59.1362 52.6814 60.0332 51.712 60.6532 50.5771C61.2731 49.4422 61.5971 48.1766 61.5967 46.8915V39.0422C61.5967 38.2095 61.2566 37.4108 60.6512 36.822C60.0458 36.2332 59.2247 35.9024 58.3685 35.9024H51.047C51.5958 36.8255 51.9122 37.8962 51.9122 39.0422Z" fill="#EFEFEF"/>
</svg>
