<svg width="78" height="79" viewBox="0 0 78 79" fill="none" xmlns="http://www.w3.org/2000/svg">
<rect x="0.261719" y="0.841064" width="77.476" height="77.476" rx="38.738" fill="#00A982"/>
<path fill-rule="evenodd" clip-rule="evenodd" d="M50.1373 22.0433C50.8983 20.6522 52.8971 20.6522 53.658 22.0433L55.257 24.9668C55.5885 25.573 56.0869 26.0714 56.6931 26.4029L59.6166 28.0019C61.0077 28.7628 61.0077 30.7616 59.6166 31.5226L56.6931 33.1216C56.0869 33.4531 55.5885 33.9515 55.257 34.5576L53.658 37.4811C52.8971 38.8722 50.8983 38.8722 50.1373 37.4811L48.5383 34.5576C48.2068 33.9515 47.7084 33.4531 47.1023 33.1216L44.1788 31.5226C42.7877 30.7616 42.7877 28.7628 44.1788 28.0019L47.1023 26.4029C47.7084 26.0714 48.2068 25.573 48.5383 24.9668L50.1373 22.0433ZM45.3933 24.5927L43.0237 25.8891C39.9613 27.5636 39.9613 31.9608 43.0237 33.6353L45.9472 35.2343C46.1491 35.3448 46.3151 35.5108 46.4256 35.7127L48.0246 38.6362C48.9317 40.2954 50.6382 41.0556 52.279 40.9159C51.4925 44.1296 49.6553 46.9887 47.0589 49.0394C46.9241 49.5195 46.7834 49.998 46.6367 50.4746C46.2594 51.706 45.2119 52.6492 43.8657 52.7896C42.6994 52.9109 40.7713 53.0409 37.8502 53.0409C34.9291 53.0409 33.001 52.9109 31.8347 52.7896C30.4885 52.6492 29.4418 51.706 29.0637 50.4746C28.917 49.998 28.7763 49.5195 28.6415 49.0394C25.2075 46.3214 23 42.112 23 37.388C23 29.1867 29.6489 22.5378 37.8502 22.5378C40.6035 22.5378 43.1826 23.2875 45.3933 24.5927ZM30.9846 54.6784C31.1933 54.7266 31.4068 54.7622 31.6252 54.7852C32.871 54.9152 34.8697 55.0477 37.8494 55.0477C40.8291 55.0477 42.827 54.9152 44.0736 54.7852C44.3592 54.7555 44.6419 54.7026 44.9189 54.6271L44.8932 54.8679C44.7046 56.6057 43.4588 58.1807 41.5515 58.4319C40.3236 58.5871 39.087 58.6633 37.8494 58.6599C36.268 58.6599 35.0407 58.5459 34.1393 58.4094C32.48 58.1582 31.3876 56.8401 31.1106 55.3615C31.0705 55.148 31.0285 54.9198 30.9846 54.6784Z" fill="#EFEFEF"/>
</svg>
