<svg width="78" height="79" viewBox="0 0 78 79" fill="none" xmlns="http://www.w3.org/2000/svg">
<rect x="0.261719" y="0.841064" width="77.476" height="77.476" rx="38.738" fill="#00A982"/>
<path d="M39.7198 22.0793L30.2255 29.769C28.6463 31.0441 28.3423 33.3392 29.5389 34.9772C30.8041 36.723 33.266 37.0663 34.9628 35.7422L44.7024 28.1703C45.389 27.6406 46.3698 27.7583 46.9093 28.4449C47.4487 29.1315 47.3212 30.1123 46.6346 30.6517L44.5847 32.2407L58.2182 44.7952V26.2773H58.1495L57.767 26.0321L50.6462 21.4712C49.1455 20.51 47.3899 20 45.6048 20C43.4666 20 41.3872 20.7356 39.7198 22.0793ZM41.9561 34.2808L36.8853 38.2237C33.7957 40.6365 29.3133 40.0088 26.9986 36.8309C24.8211 33.8394 25.3704 29.6611 28.2442 27.3366L36.4046 20.7356C35.2669 20.255 34.0409 20.0098 32.7952 20.0098C30.9513 20 29.1564 20.5493 27.6165 21.5693L20.5545 26.2773V48.2477H23.3205L32.2852 56.4278C34.2076 58.1835 37.1795 58.0461 38.9352 56.1237C39.4746 55.5254 39.8375 54.829 40.0239 54.1032L41.6913 55.6333C43.6039 57.389 46.5856 57.2615 48.3413 55.3489C48.7826 54.8683 49.1063 54.3092 49.3123 53.7305C51.2151 55.0056 53.8045 54.7408 55.4032 52.9949C57.1589 51.0823 57.0314 48.1006 55.1188 46.3449L41.9561 34.2808ZM9.56932 26.2773C8.70619 26.2773 8 26.9835 8 27.8466V48.2477C8 49.9838 9.40258 51.3864 11.1386 51.3864H14.2773C16.0133 51.3864 17.4159 49.9838 17.4159 48.2477V26.2773H9.56932ZM12.708 45.1091C13.1242 45.1091 13.5233 45.2744 13.8176 45.5687C14.1119 45.863 14.2773 46.2622 14.2773 46.6784C14.2773 47.0946 14.1119 47.4938 13.8176 47.7881C13.5233 48.0824 13.1242 48.2477 12.708 48.2477C12.2917 48.2477 11.8926 48.0824 11.5983 47.7881C11.304 47.4938 11.1386 47.0946 11.1386 46.6784C11.1386 46.2622 11.304 45.863 11.5983 45.5687C11.8926 45.2744 12.2917 45.1091 12.708 45.1091ZM61.3568 26.2773V48.2477C61.3568 49.9838 62.7594 51.3864 64.4954 51.3864H67.6341C69.3701 51.3864 70.7727 49.9838 70.7727 48.2477V27.8466C70.7727 26.9835 70.0665 26.2773 69.2034 26.2773H61.3568ZM64.4954 46.6784C64.4954 46.2622 64.6608 45.863 64.9551 45.5687C65.2494 45.2744 65.6485 45.1091 66.0648 45.1091C66.481 45.1091 66.8801 45.2744 67.1744 45.5687C67.4687 45.863 67.6341 46.2622 67.6341 46.6784C67.6341 47.0946 67.4687 47.4938 67.1744 47.7881C66.8801 48.0824 66.481 48.2477 66.0648 48.2477C65.6485 48.2477 65.2494 48.0824 64.9551 47.7881C64.6608 47.4938 64.4954 47.0946 64.4954 46.6784Z" fill="#FCFCFC"/>
</svg>
